<svg width="436" height="209" viewBox="0 0 436 209" fill="none" xmlns="http://www.w3.org/2000/svg">
    <path
        d="M202.023 3.92099C206.884 -0.332559 223.898 -3.16987 233.621 9.38823C237.874 15.0596 243.546 24.1744 252.255 38.758C262.585 55.9747 272.308 71.3693 273.726 72.9897C276.359 76.028 310.185 55.57 332.87 37.138C375.811 2.29938 371.557 51.3177 371.557 51.5202V126.868C441.437 125.045 445.083 122.209 424.22 155.833L405.584 186.013C392.418 207.28 350.087 214.572 374.798 174.467C393.23 144.287 391.002 147.123 394.243 141.452C390.799 142.059 375.811 144.692 363.86 147.123C337.731 152.592 337.731 139.021 337.326 128.083C336.921 117.348 337.124 100.942 337.124 63.4695C263.395 110.056 262.585 117.551 228.152 57.5967C216.201 36.9366 215.999 36.5303 213.163 41.189C169.006 114.107 168.601 114.31 118.369 89.3963C102.57 81.496 89.2019 75.4199 88.9993 75.6225C88.7968 76.0276 90.6195 88.9912 93.2527 104.588C100.95 150.161 101.355 149.149 69.9594 147.528C58.2115 146.92 47.0711 145.705 45.0456 145.098C42.8175 144.287 48.4893 154.82 59.0219 171.632C81.0999 225.51 46.4636 210.116 33.0953 189.051C-3.76878 130.716 -20.5806 118.563 47.0711 128.894C58.4139 130.514 63.8831 130.716 63.6806 129.299C63.6806 128.083 60.4398 112.082 56.5913 93.8524C50.3123 63.8746 34.9183 24.3769 118.571 67.115C136.396 76.2297 152.6 82.7117 152.6 82.7117C152.6 82.7117 194.527 10.6051 202.023 3.92099Z"
        fill="#ec4e20" />
    <path
        d="M186.425 140.439C193.717 125.45 199.185 111.069 215.187 114.715C224.099 116.741 233.013 125.452 242.938 141.656C257.319 164.95 255.091 163.935 274.738 155.428C308.159 141.047 320.312 145.098 318.287 170.821C314.641 219.636 275.141 215.585 281.015 187.633C284.459 170.416 286.081 171.632 268.257 177.911C241.925 187.025 233.013 184.797 221.468 165.555C213.163 151.782 214.378 151.782 204.656 167.581C191.894 188.646 184.805 185.608 162.119 179.531L162.93 187.431C164.956 208.698 143.485 202.014 128.699 176.695C115.33 153.605 128.091 146.718 162.119 158.668C169.411 161.302 175.488 162.922 175.893 162.517C176.096 161.707 180.754 151.984 186.425 140.439Z"
        fill="#ec4e20" />
</svg>