<svg width="135" height="324" viewBox="0 0 135 324" fill="none" xmlns="http://www.w3.org/2000/svg">
<rect width="135" height="324" fill="black"/>
<path d="M0 311.5H6.64773V296.5H0V311.5ZM27.1023 311.5H40.3977V296.5H27.1023V311.5ZM60.8523 311.5H74.1477V296.5H60.8523V311.5ZM94.6023 311.5H107.898V296.5H94.6023V311.5ZM128.352 311.5H135V296.5H128.352V311.5ZM135 12.5H128.352V27.5H135V12.5ZM107.898 12.5H94.6023V27.5H107.898V12.5ZM74.1477 12.5H60.8523V27.5H74.1477V12.5ZM40.3977 12.5H27.1023V27.5H40.3977V12.5ZM6.64772 12.5H0V27.5H6.64772V12.5Z" fill="white"/>
</svg>
