<svg width="116" height="152" viewBox="0 0 116 152" fill="none" xmlns="http://www.w3.org/2000/svg">
<path d="M96.2295 124.845C95.3177 127.09 95.6684 135.928 96.6503 137.19C98.1232 139.014 100.859 138.662 101.35 136.628C102.893 130.386 98.2635 119.725 96.2295 124.845Z" fill="#F9A620"/>
<path d="M19.9191 38.2247C19.4983 41.3106 19.7088 49.3064 19.8491 54.0758C19.9192 55.5487 21.0414 56.6709 22.4441 56.8111C26.5122 57.1618 27.3539 49.4466 24.7588 36.7518C24.1275 33.5956 20.4802 34.6477 19.9191 38.2247Z" fill="#F9A620"/>
<path d="M36.1913 31.7019C42.2231 31.7019 45.5898 30.7903 45.5898 29.107C45.5898 26.9327 40.5398 26.3714 32.9649 27.5638C24.8289 28.9666 27.0032 31.7019 36.1913 31.7019Z" fill="#F9A620"/>
<path d="M19.7788 0.630665C18.0955 1.33205 18.5865 23.0747 20.2698 23.9865C24.899 26.4413 26.933 23.7062 26.3719 16.1313C25.0393 0.350181 24.408 -1.26306 19.7788 0.630665Z" fill="#F9A620"/>
<path d="M5.89153 27.4236C1.19228 27.9847 0 28.4754 0 29.9483C0 32.2628 14.0276 32.8239 17.3241 30.6496C21.2518 28.0545 15.1498 26.3014 5.89153 27.4236Z" fill="#F9A620"/>
<path d="M97.001 115.727C98.2635 115.587 99.2454 114.605 99.2454 113.342C99.5961 105.066 99.8767 99.5954 94.7566 101.629C93.7746 102.05 93.5642 107.24 94.3357 112.711C94.8267 115.867 94.8969 115.938 97.001 115.727Z" fill="#F9A620"/>
<path d="M102.542 118.744C100.368 119.656 100.578 121.338 102.963 121.829C105.067 122.32 113.343 121.128 114.956 120.147C117.902 118.253 106.75 116.99 102.542 118.744Z" fill="#F9A620"/>
<path d="M92.933 118.673C90.6886 117.831 90.1976 117.831 86.6206 118.883C81.2199 120.497 83.4644 122.671 89.7066 121.829C94.0552 121.268 95.5983 119.725 92.933 118.673Z" fill="#F9A620"/>
<path d="M84.7969 85.6379C86.5504 82.6921 85.9893 78.9748 83.5345 76.6602C77.4324 70.9089 71.5408 61.0896 68.1041 50.9196C66.1402 45.2384 60.95 22.4437 60.95 19.568C60.95 15.9209 56.9521 14.0971 54.4271 16.6221C53.866 17.1832 53.1647 19.6382 52.9542 22.0931C51.6216 34.4374 44.3273 62.4222 40.1891 70.8388C38.1551 74.9769 33.9468 78.9748 29.5281 80.9387C25.7407 82.622 25.7407 82.9025 30.4399 86.9705C39.7683 95.1066 46.6418 111.168 51.4813 136.278C55.8299 158.792 63.475 151.498 62.6333 146.939C60.8799 138.101 71.1902 108.433 82.9734 88.6539L84.7969 85.6379ZM75.8193 82.7623C69.0159 91.4594 61.6514 105.066 58.1445 115.517L56.5313 120.426L55.6195 115.867C49.2369 84.9366 36.2614 83.3935 34.8586 82.0609C36.4016 80.4477 50.3591 71.6804 56.8118 51.4807C58.7757 45.3787 58.425 45.3787 60.3187 51.13C63.8958 62.0014 68.8756 70.8388 74.6269 76.7304L77.9234 80.097L75.8193 82.7623Z" fill="#F9A620"/>
</svg>
