<svg width="263" height="160" viewBox="0 0 263 160" fill="none" xmlns="http://www.w3.org/2000/svg">
<path fill-rule="evenodd" clip-rule="evenodd" d="M259.364 76.1777C250.006 68.8252 230.622 73.2813 210.124 87.318L200.543 93.7793C200.989 90.6601 202.994 69.7164 204.331 60.5814C206.782 44.5394 183.833 44.5405 158.656 60.8053L142.391 71.2756C142.837 68.6019 144.396 55.2349 147.738 42.5351C152.417 24.4879 133.256 17.5811 108.748 28.4986C99.8354 32.5091 91.5914 36.2965 90.2545 36.9649C88.4721 37.6334 87.3581 32.7312 86.9125 22.0365C85.7984 3.09812 83.7932 -2.02639 65.0776 1.9841C45.4707 6.21739 0.464111 34.9584 0.464111 43.4249C0.464111 55.902 25.8639 58.5766 41.0146 47.6591L51.9323 39.861C51.4867 42.3118 49.4812 55.4573 46.5847 61.0274C39.455 75.0641 65.0773 80.6338 88.2491 70.1615C109.416 60.5809 108.97 59.6906 103.4 82.1935C100.058 95.7846 100.504 131.658 153.308 95.3412C158.433 91.7763 162.889 89.546 162.889 90.4373C162.889 91.5513 161.329 99.5745 159.547 108.709C153.531 137.674 169.35 141.462 204.776 119.85C212.574 115.171 219.259 111.158 219.927 111.158C220.595 111.158 220.373 119.848 219.481 130.097C217.476 156.833 230.622 167.528 248.223 153.491C257.581 145.916 266.716 81.9707 259.364 76.1777Z" fill="black"/>
</svg>
